<svg width="1024" height="1024" viewBox="0 0 1024 1024" fill="none" xmlns="http://www.w3.org/2000/svg">
  <rect width="1024" height="1024" rx="160" fill="#17151B"/>

  <g fill="#72F33B">
    <!-- top-left head -->
    <path d="M325 252C365 214 414 203 461 214C441 235 429 255 423 275C443 269 463 270 482 277C461 298 448 319 439 343C430 366 415 387 393 404C355 401 323 388 295 366C291 320 302 283 325 252Z"/>

    <!-- top-right head -->
    <path d="M699 252C659 214 610 203 563 214C583 235 595 255 601 275C581 269 561 270 542 277C563 298 576 319 585 343C594 366 609 387 631 404C669 401 701 388 729 366C733 320 722 283 699 252Z"/>

    <!-- left side head -->
    <path d="M283 427C252 452 234 485 231 524C262 517 286 520 307 531C292 552 283 574 278 598C286 574 298 555 314 538C333 519 347 500 356 477C335 450 312 433 283 427Z"/>

    <!-- right side head -->
    <path d="M741 427C772 452 790 485 793 524C762 517 738 520 717 531C732 552 741 574 746 598C738 574 726 555 710 538C691 519 677 500 668 477C689 450 712 433 741 427Z"/>

    <!-- center monogram / body -->
    <path d="M512 198L391 273V766L512 838L633 766V273L512 198Z"/>
    <path d="M512 262L447 304V709L512 748L577 709V304L512 262Z" fill="#17151B"/>
    <path d="M512 322L476 348V654L512 676L548 654V348L512 322Z" fill="#72F33B"/>
    <path d="M512 392L489 408V594L512 608L535 594V408L512 392Z" fill="#17151B"/>

    <!-- lower fork / tail balance -->
    <path d="M512 778L461 748L425 714L420 683L460 702L512 736L564 702L604 683L599 714L563 748L512 778Z"/>
  </g>

  <g fill="#17151B">
    <!-- mouth/eye cuts to make the heads read as hydra heads -->
    <path d="M337 300C351 292 367 289 384 292C377 304 372 315 369 328C356 323 345 315 337 300Z"/>
    <path d="M687 300C673 292 657 289 640 292C647 304 652 315 655 328C668 323 679 315 687 300Z"/>
    <path d="M283 474C296 466 310 463 325 465C319 476 315 486 313 497C303 492 292 484 283 474Z"/>
    <path d="M741 474C728 466 714 463 699 465C705 476 709 486 711 497C721 492 732 484 741 474Z"/>
    <path d="M493 286C500 279 506 275 512 275C518 275 524 279 531 286C525 289 519 291 512 291C505 291 499 289 493 286Z"/>
  </g>
</svg>
