<svg width="1024" height="1024" viewBox="0 0 1024 1024" fill="none" xmlns="http://www.w3.org/2000/svg">
  <rect width="1024" height="1024" rx="160" fill="#17151B"/>

  <g>
    <!-- left head -->
    <path d="M257 379C253 330 270 286 306 255C342 224 389 209 431 217C414 233 404 250 398 270C416 266 435 267 453 274C433 295 418 318 410 343C402 369 386 392 363 411C327 411 292 399 257 379Z" fill="#70F43A"/>
    <path d="M298 300C314 292 332 289 350 292C342 303 337 314 334 326C320 322 308 314 298 300Z" fill="#17151B"/>
    <path d="M338 267C332 255 326 248 318 241C331 239 346 242 358 249C351 255 344 261 338 267Z" fill="#17151B"/>

    <!-- center head -->
    <path d="M513 184C473 219 450 262 449 315C449 360 461 396 481 428C498 418 513 406 522 393C531 406 546 418 563 428C583 396 595 360 595 315C594 262 571 219 531 184C523 176 518 172 513 172C508 172 503 176 513 184Z" fill="#70F43A"/>
    <path d="M493 300C500 290 507 282 513 282C519 282 526 290 533 300C526 303 519 305 513 305C507 305 500 303 493 300Z" fill="#17151B"/>
    <path d="M507 255C503 247 499 241 493 236C501 233 511 233 519 236C513 241 509 247 507 255Z" fill="#17151B"/>

    <!-- right head -->
    <path d="M767 379C771 330 754 286 718 255C682 224 635 209 593 217C610 233 620 250 626 270C608 266 589 267 571 274C591 295 606 318 614 343C622 369 638 392 661 411C697 411 732 399 767 379Z" fill="#70F43A"/>
    <path d="M726 300C710 292 692 289 674 292C682 303 687 314 690 326C704 322 716 314 726 300Z" fill="#17151B"/>
    <path d="M686 267C692 255 698 248 706 241C693 239 678 242 666 249C673 255 680 261 686 267Z" fill="#17151B"/>

    <!-- body -->
    <path d="M512 415L396 478V756L512 836L628 756V478L512 415Z" fill="#70F43A"/>
    <path d="M512 464L450 500V721L512 760L574 721V500L512 464Z" fill="#17151B"/>

    <!-- spine / inner cut -->
    <path d="M512 496L476 519V676L512 698L548 676V519L512 496Z" fill="#70F43A"/>
    <path d="M512 530L495 541V652L512 662L529 652V541L512 530Z" fill="#17151B"/>

    <!-- hydra necks -->
    <path d="M405 412C365 436 330 459 303 492C320 503 341 510 366 512C379 490 394 470 411 454C417 440 418 425 405 412Z" fill="#70F43A"/>
    <path d="M619 412C659 436 694 459 721 492C704 503 683 510 658 512C645 490 630 470 613 454C607 440 606 425 619 412Z" fill="#70F43A"/>

    <!-- subtle hand-made angle breaks -->
    <path d="M404 478L438 500L417 520L386 502L404 478Z" fill="#17151B"/>
    <path d="M620 478L586 500L607 520L638 502L620 478Z" fill="#17151B"/>
  </g>
</svg>
