<svg width="1024" height="1024" viewBox="0 0 1024 1024" fill="none" xmlns="http://www.w3.org/2000/svg">
  <rect width="1024" height="1024" rx="192" fill="#141219"/>
  <circle cx="512" cy="512" r="318" fill="#19161F" stroke="#61F83A" stroke-width="34"/>

  <g stroke="#61F83A" stroke-width="34" stroke-linecap="round" stroke-linejoin="round">
    <!-- left horn / head -->
    <path d="M412 372C377 382 349 406 337 439C327 468 328 499 343 524C359 553 390 571 426 576"/>
    <path d="M426 576C395 541 384 505 389 472C395 436 416 411 451 395"/>
    <path d="M451 395C431 379 412 366 392 356"/>
    <path d="M365 446C339 435 316 420 297 401"/>
    <path d="M372 489C344 489 321 494 301 504"/>

    <!-- center horn / head -->
    <path d="M512 294C477 317 456 348 452 384C448 421 462 458 489 484C500 495 506 504 512 520"/>
    <path d="M512 520C518 504 524 495 535 484C562 458 576 421 572 384C568 348 547 317 512 294"/>
    <path d="M512 294C493 272 486 250 487 229"/>
    <path d="M512 294C531 272 538 250 537 229"/>
    <path d="M486 367C497 358 505 353 512 353C519 353 527 358 538 367"/>
    <path d="M474 419C490 414 502 412 512 412C522 412 534 414 550 419"/>

    <!-- right horn / head -->
    <path d="M612 372C647 382 675 406 687 439C697 468 696 499 681 524C665 553 634 571 598 576"/>
    <path d="M598 576C629 541 640 505 635 472C629 436 608 411 573 395"/>
    <path d="M573 395C593 379 612 366 632 356"/>
    <path d="M659 446C685 435 708 420 727 401"/>
    <path d="M652 489C680 489 703 494 723 504"/>

    <!-- body / shield -->
    <path d="M512 548L421 612V760L512 820L603 760V612L512 548Z"/>
    <path d="M512 606L463 641V723L512 752L561 723V641L512 606Z" fill="#141219" stroke="none"/>

    <!-- inner hydra spine -->
    <path d="M512 650L489 667V717L512 730L535 717V667L512 650Z" fill="#61F83A" stroke="none"/>

    <!-- lower tail / base -->
    <path d="M398 746C421 776 448 798 479 810"/>
    <path d="M626 746C603 776 576 798 545 810"/>
  </g>
</svg>
