<svg width="1024" height="1024" viewBox="0 0 1024 1024" fill="none" xmlns="http://www.w3.org/2000/svg">
  <rect width="1024" height="1024" rx="160" fill="#151319"/>

  <g>
    <!-- central crest/body -->
    <path d="M512 204L418 262V646L512 792L606 646V262L512 204Z" fill="#66FF3A"/>
    <path d="M512 274L462 307V618L512 692L562 618V307L512 274Z" fill="#151319"/>
    <path d="M512 342L485 359V563L512 602L539 563V359L512 342Z" fill="#66FF3A"/>
    <path d="M512 392L499 400V524L512 542L525 524V400L512 392Z" fill="#151319"/>

    <!-- left hydra head -->
    <path d="M257 404C243 353 252 307 278 271C306 232 349 210 396 208C381 226 373 244 371 262C390 258 408 260 426 268C406 287 392 308 383 330C374 353 361 374 343 392C322 402 296 408 257 404Z" fill="#66FF3A"/>
    <path d="M286 301C299 294 313 292 327 295C320 305 315 315 313 326C301 322 292 314 286 301Z" fill="#151319"/>
    <path d="M309 268C304 259 298 253 291 248C301 246 311 247 320 252C314 256 312 261 309 268Z" fill="#151319"/>
    <path d="M281 343C292 337 305 334 318 335C313 342 310 349 308 357C298 353 289 349 281 343Z" fill="#151319"/>
    <path d="M252 392C270 377 291 364 316 354C308 383 301 399 293 410C276 409 263 405 252 392Z" fill="#151319"/>

    <!-- center hydra head -->
    <path d="M512 150C466 159 428 186 404 227C388 255 382 286 385 318C390 366 409 404 438 435C458 416 476 404 492 397C498 376 500 356 499 337C483 341 472 349 462 360C454 337 451 315 454 293C468 271 487 255 512 247C537 255 556 271 570 293C573 315 570 337 562 360C552 349 541 341 525 337C524 356 526 376 532 397C548 404 566 416 586 435C615 404 634 366 639 318C642 286 636 255 620 227C596 186 558 159 512 150Z" fill="#66FF3A"/>
    <path d="M468 272C483 262 497 257 512 257C527 257 541 262 556 272C548 281 541 289 535 299C526 294 519 291 512 291C505 291 498 294 489 299C483 289 476 281 468 272Z" fill="#151319"/>
    <path d="M492 223C497 214 504 208 512 208C520 208 527 214 532 223C524 227 518 232 512 239C506 232 500 227 492 223Z" fill="#151319"/>
    <path d="M444 337C462 327 481 321 500 321C494 331 489 341 486 351C472 346 457 342 444 337Z" fill="#151319"/>
    <path d="M580 337C558 327 539 321 520 321C526 331 531 341 534 351C548 346 563 342 580 337Z" fill="#151319"/>

    <!-- right hydra head -->
    <path d="M767 404C781 353 772 307 746 271C718 232 675 210 628 208C643 226 651 244 653 262C634 258 616 260 598 268C618 287 632 308 641 330C650 353 663 374 681 392C702 402 728 408 767 404Z" fill="#66FF3A"/>
    <path d="M738 301C725 294 711 292 697 295C704 305 709 315 711 326C723 322 732 314 738 301Z" fill="#151319"/>
    <path d="M715 268C720 259 726 253 733 248C723 246 713 247 704 252C710 256 712 261 715 268Z" fill="#151319"/>
    <path d="M743 343C732 337 719 334 706 335C711 342 714 349 716 357C726 353 735 349 743 343Z" fill="#151319"/>
    <path d="M772 392C754 377 733 364 708 354C716 383 723 399 731 410C748 409 761 405 772 392Z" fill="#151319"/>

    <!-- lower coils / base -->
    <path d="M342 505C328 565 332 622 356 676C382 735 427 782 490 816H534C597 782 642 735 668 676C692 622 696 565 682 505L625 548C633 590 630 628 615 662C597 702 564 733 512 760C460 733 427 702 409 662C394 628 391 590 399 548L342 505Z" fill="#66FF3A"/>
    <path d="M392 542C385 584 388 620 399 650C412 686 435 715 468 739C491 726 509 711 522 694C535 711 553 726 576 739C609 715 632 686 645 650C656 620 659 584 652 542L610 570C612 603 607 630 596 653C583 679 560 699 528 714H496C464 699 441 679 428 653C417 630 412 603 414 570L392 542Z" fill="#151319"/>

    <!-- hydra emblem cut -->
    <path d="M512 560L487 576V652L512 670L537 652V576L512 560Z" fill="#66FF3A"/>
    <path d="M512 596L501 603V628L512 635L523 628V603L512 596Z" fill="#151319"/>
  </g>
</svg>
