<svg width="1024" height="1024" viewBox="0 0 1024 1024" fill="none" xmlns="http://www.w3.org/2000/svg">
  <rect width="1024" height="1024" rx="160" fill="#141219"/>

  <g fill="#6DFF39">
    <!-- central horned head -->
    <path d="M512 168C482 170 452 183 430 205C409 226 398 256 400 287C403 321 417 349 438 370C457 391 480 405 506 413C496 392 492 372 492 352C507 359 520 362 532 362C544 362 557 359 572 352C572 372 568 392 558 413C584 405 607 391 626 370C647 349 661 321 664 287C666 256 655 226 634 205C612 183 582 170 552 168C541 176 532 186 523 198C518 205 514 212 512 220C510 212 506 205 501 198C492 186 483 176 472 168Z"/>
    <path d="M468 236C480 223 495 216 512 216C529 216 544 223 556 236C546 240 537 246 528 255C521 247 514 243 512 243C510 243 503 247 496 255C487 246 478 240 468 236Z" fill="#141219"/>
    <path d="M482 286C492 277 502 273 512 273C522 273 532 277 542 286C533 290 525 294 518 300C514 294 510 291 512 291C514 291 510 294 506 300C499 294 491 290 482 286Z" fill="#141219"/>

    <!-- left head -->
    <path d="M293 332C276 290 279 248 303 213C326 179 364 158 405 155C381 176 367 198 361 221C379 217 398 220 417 229C396 247 381 269 372 294C366 312 354 329 336 344C324 343 310 339 293 332Z"/>
    <path d="M328 238C340 231 352 228 365 230C360 240 356 250 354 261C343 258 334 251 328 238Z" fill="#141219"/>
    <path d="M356 203C352 193 347 186 341 181C352 180 363 182 373 187C366 192 361 198 356 203Z" fill="#141219"/>
    <path d="M307 274C318 266 331 262 345 262C338 271 333 280 330 289C320 285 313 280 307 274Z" fill="#141219"/>

    <!-- right head -->
    <path d="M731 332C748 290 745 248 721 213C698 179 660 158 619 155C643 176 657 198 663 221C645 217 626 220 607 229C628 247 643 269 652 294C658 312 670 329 688 344C700 343 714 339 731 332Z"/>
    <path d="M696 238C684 231 672 228 659 230C664 240 668 250 670 261C681 258 690 251 696 238Z" fill="#141219"/>
    <path d="M668 203C672 193 677 186 683 181C672 180 661 182 651 187C658 192 663 198 668 203Z" fill="#141219"/>
    <path d="M717 274C706 266 693 262 679 262C686 271 691 280 694 289C704 285 711 280 717 274Z" fill="#141219"/>

    <!-- left lower head -->
    <path d="M252 482C246 445 255 408 279 380C301 353 333 336 369 333C350 349 339 366 334 383C350 380 365 382 379 389C362 404 350 421 342 440C334 459 322 476 305 489C286 489 269 487 252 482Z"/>
    <path d="M292 408C301 402 311 399 321 400C316 408 312 416 310 424C301 420 295 415 292 408Z" fill="#141219"/>
    <path d="M282 445C291 440 301 437 311 438C306 445 303 453 300 461C292 458 286 453 282 445Z" fill="#141219"/>

    <!-- right lower head -->
    <path d="M772 482C778 445 769 408 745 380C723 353 691 336 655 333C674 349 685 366 690 383C674 380 659 382 645 389C662 404 674 421 682 440C690 459 702 476 719 489C738 489 755 487 772 482Z"/>
    <path d="M732 408C723 402 713 399 703 400C708 408 712 416 714 424C723 420 729 415 732 408Z" fill="#141219"/>
    <path d="M742 445C733 440 723 437 713 438C718 445 721 453 724 461C732 458 738 453 742 445Z" fill="#141219"/>

    <!-- body -->
    <path d="M512 396L391 474V760L512 842L633 760V474L512 396Z"/>
    <path d="M512 446L452 485V721L512 759L572 721V485L512 446Z" fill="#141219"/>

    <!-- inner monogram / spine -->
    <path d="M512 500L476 523V665L512 688L548 665V523L512 500Z" fill="#6DFF39"/>
    <path d="M512 542L497 552V636L512 646L527 636V552L512 542Z" fill="#141219"/>

    <!-- lower crest / tail -->
    <path d="M512 782L463 755L425 723L415 687L458 707L512 744L566 707L609 687L599 723L561 755L512 782Z"/>
  </g>
</svg>
